{
  "accessors": [
    {
      "bufferView": 2,
      "componentType": 5126,
      "count": 33152,
      "max": [
        1.219024658203125,
        118.2802734375,
        105.81522369384766
      ],
      "min": [
        -176.15255737304688,
        -1.0206756591796875,
        -1.0241241455078125
      ],
      "type": "VEC3"
    },
    {
      "bufferView": 2,
      "byteOffset": 397824,
      "componentType": 5126,
      "count": 33152,
      "max": [
        0.9999983310699463,
        0.9999986290931702,
        0.9999717473983765
      ],
      "min": [
        -0.9999988675117493,
        -0.9999969601631165,
        -0.9999978542327881
      ],
      "type": "VEC3"
    },
    {
      "bufferView": 1,
      "componentType": 5126,
      "count": 33152,
      "max": [
        0.9721624851226807,
        0.9998778700828552
      ],
      "min": [
        0.0001220941630890593,
        0.0001220941630890593
      ],
      "type": "VEC2"
    },
    {
      "bufferView": 1,
      "byteOffset": 265216,
      "componentType": 5126,
      "count": 33152,
      "max": [
        0.9721624851226807,
        0.9998778700828552
      ],
      "min": [
        0.0001220941630890593,
        0.0001220941630890593
      ],
      "type": "VEC2"
    },
    {
      "bufferView": 0,
      "componentType": 5125,
      "count": 117504,
      "type": "SCALAR"
    }
  ],
  "asset": {
    "extras": {
      "author": "OsianOHM (https://sketchfab.com/OsianOHM)",
      "license": "CC-BY-4.0 (http://creativecommons.org/licenses/by/4.0/)",
      "source": "https://sketchfab.com/3d-models/spider-lily-lycoris-radiata-1c7b5a307dbd40218adf2c7fcd88d8cd",
      "title": "Spider Lily (Lycoris Radiata)"
    },
    "generator": "Sketchfab-15.30.0",
    "version": "2.0"
  },
  "bufferViews": [
    {
      "buffer": 0,
      "byteLength": 470016,
      "name": "floatBufferViews",
      "target": 34963
    },
    {
      "buffer": 0,
      "byteLength": 530432,
      "byteOffset": 470016,
      "byteStride": 8,
      "name": "floatBufferViews",
      "target": 34962
    },
    {
      "buffer": 0,
      "byteLength": 795648,
      "byteOffset": 1000448,
      "byteStride": 12,
      "name": "floatBufferViews",
      "target": 34962
    }
  ],
  "buffers": [
    {
      "byteLength": 1796096,
      "uri": "scene.bin"
    }
  ],
  "images": [
    {
      "uri": "textures/LycorisRadiataTexture_baseColor.png"
    },
    {
      "uri": "textures/LycorisRadiataTexture_metallicRoughness.png"
    }
  ],
  "materials": [
    {
      "doubleSided": true,
      "name": "LycorisRadiataTexture",
      "pbrMetallicRoughness": {
        "baseColorTexture": {
          "index": 0
        },
        "metallicFactor": 0.0,
        "metallicRoughnessTexture": {
          "index": 1
        }
      }
    }
  ],
  "meshes": [
    {
      "name": "Lycoris.Radiata_LycorisRadiataTexture_0",
      "primitives": [
        {
          "attributes": {
            "NORMAL": 1,
            "POSITION": 0,
            "TEXCOORD_0": 2,
            "TEXCOORD_1": 3
          },
          "indices": 4,
          "material": 0,
          "mode": 4
        }
      ]
    }
  ],
  "nodes": [
    {
      "children": [
        1
      ],
      "matrix": [
        1.0,
        0.0,
        0.0,
        0.0,
        0.0,
        2.220446049250313e-16,
        -1.0,
        0.0,
        0.0,
        1.0,
        2.220446049250313e-16,
        0.0,
        0.0,
        0.0,
        0.0,
        1.0
      ],
      "name": "Sketchfab_model"
    },
    {
      "children": [
        2
      ],
      "matrix": [
        0.009999999776482582,
        0.0,
        0.0,
        0.0,
        0.0,
        0.0,
        0.009999999776482582,
        0.0,
        0.0,
        -0.009999999776482582,
        0.0,
        0.0,
        0.0,
        0.0,
        0.0,
        1.0
      ],
      "name": "7f2cb789bdb74bad8db42c68ccb74c0e.fbx"
    },
    {
      "children": [
        3
      ],
      "name": "RootNode"
    },
    {
      "children": [
        4
      ],
      "matrix": [
        0.19036485572417478,
        -0.288529809940032,
        0.08801367845196799,
        0.0,
        0.29708633304489895,
        0.16127911177946377,
        -0.11385690991382957,
        0.0,
        0.052302667995983744,
        0.1340680088226062,
        0.32638139619692175,
        0.0,
        0.0,
        0.0,
        0.0,
        1.0
      ],
      "name": "Lycoris.Radiata"
    },
    {
      "mesh": 0,
      "name": "Lycoris.Radiata_LycorisRadiataTexture_0"
    }
  ],
  "samplers": [
    {
      "magFilter": 9729,
      "minFilter": 9987,
      "wrapS": 10497,
      "wrapT": 10497
    }
  ],
  "scene": 0,
  "scenes": [
    {
      "name": "Sketchfab_Scene",
      "nodes": [
        0
      ]
    }
  ],
  "textures": [
    {
      "sampler": 0,
      "source": 0
    },
    {
      "sampler": 0,
      "source": 1
    }
  ]
}
